#!OML:ASF H:\Terrain\Patient Classification 1\Walking\liu\liu.ASF
:FULLY-SPECIFIED
:DEGREES
64
root 8.93145 16.1796 -18.9535 7.48114 -3.64647 -6.62234
lowerback -5.74882 2.89992 2.63051
upperback -0.917512 3.63516 2.66393
thorax 2.26287 1.82497 1.54684
lowerneck -22.6075 -4.99461 -13.5801
upperneck 18.9221 -5.81777 14.3063
head 10.6708 -2.00031 6.57877
rclavicle 7.2867e-015 -1.61016e-014
rhumerus -22.5486 25.7587 -83.8373
rradius 47.89
rwrist -20.9477
rhand -30.1267 -25.6934
rfingers 7.12502
rthumb -3.43984 -55.6454
lclavicle 7.2867e-015 -1.61016e-014
lhumerus -55.627 14.302 62.5238
lradius 4.64176
lwrist -26.0843
lhand -11.3968 -17.2719
lfingers 7.12502
lthumb 14.6382 12.1915
rfemur 21.829 0.316048 28.9255
rtibia -4.45278e-014
rfoot 5.34392 8.37787
rtoes -21.3558
lfemur -40.6549 6.18246 -16.7316
ltibia 23.5276
lfoot 0.655731 6.8369
ltoes -7.32689
65
root 8.9392 16.1934 -18.7272 7.47022 -3.64738 -6.0565
lowerback -5.67972 2.96593 1.90422
upperback -1.10261 3.78089 2.51444
thorax 1.9959 1.89313 1.7962
lowerneck -22.3268 -5.14503 -13.8168
upperneck 18.9942 -6.00918 14.3691
head 10.6867 -2.10881 6.61431
rclavicle 9.27455e-015 -1.53064e-014
rhumerus -23.3028 25.098 -84.0879
rradius 47.7332
rwrist -21.0033
rhand -30.814 -25.8969
rfingers 7.12502
rthumb -4.1035 -55.8372
lclavicle 9.27455e-015 -1.53064e-014
lhumerus -55.7166 14.1081 62.6132
lradius 4.4056
lwrist -26.0034
lhand -11.2865 -16.6932
lfingers 7.12502
lthumb 14.7445 12.7624
rfemur 22.4061 0.364756 28.2617
rtibia -3.81667e-014
rfoot 7.54959 7.13353
rtoes -20.0929
lfemur -40.2164 6.52298 -17.4616
ltibia 24.3476
lfoot 1.52012 6.50424
ltoes -6.19315
66
root 8.94553 16.2092 -18.5051 7.39918 -3.60089 -5.31744
lowerback -5.60091 2.94357 0.967089
upperback -1.1444 3.81529 2.3291
thorax 1.86001 1.9067 2.12261
lowerneck -22.3665 -5.28218 -13.925
upperneck 19.0479 -6.1563 14.3281
head 10.7401 -2.18775 6.59526
rclavicle 8.43282e-015 1.40143e-014
rhumerus -23.8624 24.5458 -84.3597
rradius 47.5925
rwrist -21.1185
rhand -31.6648 -25.8058
rfingers 7.12502
rthumb -4.92503 -55.7286
lclavicle 8.43282e-015 1.40143e-014
lhumerus -55.708 14.1388 62.6318
lradius 4.35133
lwrist -26.0168
lhand -11.3285 -16.552
lfingers 7.12502
lthumb 14.704 12.9066
rfemur 22.9601 0.33022 27.4633
rtibia -1.59028e-014
rfoot 9.92118 5.54007
rtoes -18.9431
lfemur -39.9927 7.0904 -18.575
ltibia 25.5097
lfoot 2.07063 5.60751
ltoes -7.33864
67
root 8.95554 16.2268 -18.2818 7.24758 -3.4594 -4.62005
lowerback -5.48783 2.82107 0.0891272
upperback -1.12348 3.70927 2.14824
thorax 1.77781 1.85078 2.4124
lowerneck -22.8219 -5.24617 -13.6627
upperneck 19.4203 -6.11522 14.099
head 10.9356 -2.1596 6.48633
rclavicle -5.43428e-014 -1.96797e-014
rhumerus -24.3652 23.9193 -84.5754
rradius 47.3344
rwrist -20.6882
rhand -31.5123 -24.9567
rfingers 7.12502
rthumb -4.77781 -54.8828
lclavicle -5.43428e-014 -1.96797e-014
lhumerus -55.5812 14.4084 62.5411
lradius 4.20243
lwrist -26.3177
lhand -11.6577 -16.9444
lfingers 7.12502
lthumb 14.3868 12.537
rfemur 20.8427 0.14109 26.7252
rtibia 5.42785
rfoot 9.82744 4.93817
rtoes -17.6887
lfemur -39.9223 7.82149 -19.8264
ltibia 26.7907
lfoot 2.08707 4.0062
ltoes -8.47642
68
root 8.96812 16.2406 -18.0583 7.00163 -3.33196 -4.42033
lowerback -5.17745 2.72322 -0.214398
upperback -1.1741 3.60192 2.0814
thorax 1.54256 1.79846 2.48656
lowerneck -23.1406 -5.13959 -13.4379
upperneck 19.899 -6.02679 14.0084
head 11.1455 -2.10199 6.45099
rclavicle 4.16485e-014 -4.96962e-017
rhumerus -24.9423 23.2559 -84.8995
rradius 46.9524
rwrist -20.2622
rhand -30.7933 -25.0584
rfingers 7.12502
rthumb -4.08355 -54.999
lclavicle 4.16485e-014 -4.96962e-017
lhumerus -55.491 14.6946 62.3895
lradius 4.11183
lwrist -26.543
lhand -12.0129 -17.3052
lfingers 7.12502
lthumb 14.0446 12.2002
rfemur 18.7649 0.0155859 26.4571
rtibia 10.9434
rfoot 9.96176 4.2166
rtoes -16.6999
lfemur -39.6703 8.70936 -20.5665
ltibia 27.9643
lfoot 1.77776 2.0675
ltoes -7.80499
69
root 8.98328 16.2529 -17.8387 6.8424 -3.15692 -4.25035
lowerback -4.92518 2.69751 -0.360456
upperback -1.24146 3.58067 1.96207
thorax 1.33232 1.78975 2.42771
lowerneck -22.8388 -5.20451 -13.6357
upperneck 19.862 -6.16018 14.2956
head 11.1162 -2.15538 6.57254
rclavicle -2.56168e-014 -2.43511e-014
rhumerus -25.4114 22.4903 -85.2303
rradius 46.3879
rwrist -20.1109
rhand -30.4374 -25.4337
rfingers 7.12502
rthumb -3.73987 -55.3806
lclavicle -2.56168e-014 -2.43511e-014
lhumerus -55.3365 14.7645 62.32
lradius 4.47391
lwrist -26.4936
lhand -11.9667 -17.2752
lfingers 7.12502
lthumb 14.0891 12.2272
rfemur 17.2254 -0.709908 26.0048
rtibia 15.0111
rfoot 11.5452 3.43602
rtoes -15.6249
lfemur -39.404 9.36794 -21.1651
ltibia 29.0496
lfoot 1.38879 0.667051
ltoes -6.8751
70
root 9.00146 16.2755 -17.6212 6.80451 -2.94996 -3.8954
lowerback -4.86343 2.69092 -0.627482
upperback -1.29785 3.58907 1.78357
thorax 1.23466 1.79468 2.38842
lowerneck -22.4924 -5.33503 -13.8719
upperneck 19.7292 -6.35448 14.5224
head 11.053 -2.24852 6.66185
rclavicle -5.83309e-015 -1.79652e-014
rhumerus -25.9631 21.614 -85.4868
rradius 45.8453
rwrist -20.0195
rhand -30.4335 -25.1343
rfingers 7.12502
rthumb -3.73604 -55.0813
lclavicle -5.83309e-015 -1.79652e-014
lhumerus -55.1761 14.7692 62.3505
lradius 5.02974
lwrist -26.4888
lhand -11.7405 -17.2325
lfingers 7.12502
lthumb 14.3071 12.2546
rfemur 15.5711 -1.39585 25.3923
rtibia 18.8678
rfoot 13.1751 2.45767
rtoes -13.8655
lfemur -39.0929 9.62296 -21.7911
ltibia 29.9264
lfoot 0.871969 0.104442
ltoes -5.42483
71
root 9.02081 16.2997 -17.4056 6.62695 -2.78681 -3.63468
lowerback -4.71513 2.60476 -0.81321
upperback -1.25268 3.48456 1.68785
thorax 1.19798 1.74216 2.38166
lowerneck -22.5618 -5.31734 -13.7765
upperneck 19.8013 -6.32031 14.3668
head 11.0766 -2.24094 6.59331
rclavicle 5.79698e-014 7.40473e-015
rhumerus -26.4278 21.0651 -85.778
rradius 45.4808
rwrist -20.1132
rhand -30.4786 -25.8154
rfingers 7.12502
rthumb -3.77968 -55.7616
lclavicle 5.79698e-014 7.40473e-015
lhumerus -54.9422 15.139 62.3256
lradius 5.22951
lwrist -26.5191
lhand -11.6205 -17.9623
lfingers 7.12502
lthumb 14.4226 11.5165
rfemur 13.9779 -2.17841 24.8324
rtibia 22.8922
rfoot 14.361 1.69315
rtoes -11.9212
lfemur -38.3499 9.71367 -22.1719
ltibia 30.3788
lfoot 0.328596 -0.179252
ltoes -4.31464
72
root 9.0468 16.3307 -17.1931 6.38141 -2.55229 -3.12151
lowerback -4.45778 2.43065 -1.20133
upperback -1.23245 3.27177 1.55386
thorax 1.07111 1.63652 2.43742
lowerneck -22.7922 -5.2188 -13.5225
upperneck 20.1653 -6.15639 13.9125
head 11.1983 -2.19152 6.41608
rclavicle 6.35994e-015 7.20594e-016
rhumerus -26.8746 20.7934 -86.116
rradius 45.1222
rwrist -20.3461
rhand -30.4644 -27.2186
rfingers 7.12502
rthumb -3.7659 -57.1651
lclavicle 6.35994e-015 7.20594e-016
lhumerus -54.5466 15.7556 62.3388
lradius 5.0528
lwrist -26.3893
lhand -11.6703 -18.6176
lfingers 7.12502
lthumb 14.3747 10.8646
rfemur 12.4308 -3.06412 23.9621
rtibia 26.9288
rfoot 15.5072 1.07411
rtoes -11.0958
lfemur -37.3339 9.77003 -22.8586
ltibia 30.416
lfoot -0.432795 -0.775694
ltoes -4.11312
